/* XPM */
static char *_01ff9c03d4649d2e06e4c4d2504c3a0dTPeT0lUOnmF0DqH[] = {
/* columns rows colors chars-per-pixel */
"62 64 256 2 ",
"   c #020202",
".  c #0B0402",
"X  c #02040C",
"o  c #050A0D",
"O  c #0C0C0C",
"+  c #0A0806",
"@  c #130101",
"#  c #1B0201",
"$  c #120D0B",
"%  c #190A05",
"&  c #14110D",
"*  c #1A1309",
"=  c #030B13",
"-  c #0A0C13",
";  c #06091A",
":  c #0C0C1A",
">  c #040613",
",  c #120D16",
"<  c #0D1215",
"1  c #0C131B",
"2  c #051519",
"3  c #141414",
"4  c #1B1514",
"5  c #1B1A16",
"6  c #12151A",
"7  c #131B1C",
"8  c #1C1D19",
"9  c #1A1618",
"0  c #0B1209",
"q  c #2B0300",
"w  c #250903",
"e  c #380702",
"r  c #281507",
"t  c #381705",
"y  c #231B16",
"u  c #231C19",
"i  c #2A1D1A",
"p  c #261616",
"a  c #351C16",
"s  c #220B17",
"d  c #1D221B",
"f  c #162118",
"g  c #1C260B",
"h  c #39230A",
"j  c #23221D",
"k  c #2A221C",
"l  c #272417",
"z  c #382718",
"x  c #322D12",
"c  c #081727",
"v  c #171926",
"b  c #0D152D",
"n  c #251B22",
"m  c #1A2426",
"M  c #092639",
"N  c #1B2937",
"B  c #0F202A",
"V  c #242422",
"C  c #2B2522",
"Z  c #292927",
"A  c #372B26",
"S  c #39342B",
"D  c #272935",
"F  c #293337",
"G  c #393936",
"H  c #312D31",
"J  c #440B01",
"K  c #560A06",
"L  c #451703",
"P  c #521911",
"I  c #6F140C",
"U  c #472409",
"Y  c #562506",
"T  c #462A18",
"R  c #562A14",
"E  c #4C341C",
"W  c #583519",
"Q  c #55310E",
"!  c #673A1A",
"~  c #733013",
"^  c #473626",
"/  c #583924",
"(  c #463D37",
")  c #533731",
"_  c #653B24",
"`  c #742C24",
"'  c #3E4036",
"]  c #76411D",
"[  c #464439",
"{  c #564633",
"}  c #694529",
"|  c #754627",
" . c #6C4B35",
".. c #754B34",
"X. c #795539",
"o. c #6E5236",
"O. c #7F613B",
"+. c #143249",
"@. c #2E3647",
"#. c #3A4448",
"$. c #384A59",
"%. c #2A4353",
"&. c #30516B",
"*. c #19415A",
"=. c #484845",
"-. c #585449",
";. c #595755",
":. c #4F4D52",
">. c #785B44",
",. c #645B57",
"<. c #6A594F",
"1. c #5F625A",
"2. c #67645B",
"3. c #75675A",
"4. c #7D6448",
"5. c #4F5664",
"6. c #6A5D67",
"7. c #686865",
"8. c #756B66",
"9. c #777569",
"0. c #696D75",
"q. c #7B7C72",
"w. c #777777",
"e. c #6F706F",
"r. c #4E6677",
"t. c #413543",
"y. c #870402",
"u. c #970703",
"i. c #9A1709",
"p. c #981817",
"a. c #871712",
"s. c #A7180C",
"d. c #A91A15",
"f. c #B51A18",
"g. c #AF150E",
"h. c #863B1A",
"j. c #922313",
"k. c #AB251A",
"l. c #911C22",
"z. c #983829",
"x. c #8E3228",
"c. c #B6342A",
"v. c #AB1C23",
"b. c #CC372D",
"n. c #C0281D",
"m. c #854A28",
"M. c #875839",
"N. c #975937",
"B. c #8E4B32",
"V. c #AD4E36",
"C. c #96653B",
"Z. c #8C643F",
"A. c #A5683D",
"S. c #81411D",
"D. c #875B43",
"F. c #955B49",
"G. c #886548",
"H. c #976848",
"J. c #896957",
"K. c #966C54",
"L. c #9A7558",
"P. c #8F7451",
"I. c #A56B4A",
"U. c #A7744C",
"Y. c #A47553",
"T. c #A97958",
"R. c #B67A59",
"E. c #B46E4E",
"W. c #84766C",
"Q. c #9A7864",
"!. c #837B72",
"~. c #8A6D69",
"^. c #A77C63",
"/. c #B67469",
"(. c #B45A4A",
"). c #C56D58",
"_. c #CB7769",
"`. c #C95644",
"'. c #CE4734",
"]. c #7E827A",
"[. c #68866F",
"{. c #9A845C",
"}. c #AC835C",
"|. c #B6855B",
" X c #B2804F",
".X c #9E8967",
"XX c #84847B",
"oX c #8A877C",
"OX c #978C77",
"+X c #A98468",
"@X c #B88966",
"#X c #BD9269",
"$X c #B68B74",
"%X c #B99677",
"&X c #AB9075",
"*X c #B6A47A",
"=X c #C6885B",
"-X c #CF905E",
";X c #C68B66",
":X c #C8946A",
">X c #D8976A",
",X c #C89877",
"<X c #D69A77",
"1X c #D28B74",
"2X c #D9A47A",
"3X c #CCA276",
"4X c #E5AA7B",
"5X c #F3B37D",
"6X c #E19F7F",
"7X c #3A6C92",
"8X c #397AA8",
"9X c #4C7591",
"0X c #767B83",
"qX c #4A7FA4",
"wX c #8C7D85",
"eX c #698594",
"rX c #4E87B2",
"tX c #5F88A5",
"yX c #5896C5",
"uX c #8C8C83",
"iX c #878686",
"pX c #958B86",
"aX c #96968A",
"sX c #9B9A96",
"dX c #8E8E8F",
"fX c #AC9785",
"gX c #A7A79A",
"hX c #B3A893",
"jX c #B9B7A8",
"kX c #ADAEAC",
"lX c #9EA3A3",
"zX c #C89C84",
"xX c #D79C84",
"cX c #CAA287",
"vX c #D7A587",
"bX c #D8AB94",
"nX c #CFAC98",
"mX c #E3AB85",
"MX c #EBAD8A",
"NX c #E6A986",
"BX c #F3AA88",
"VX c #ECB38C",
"CX c #EBB286",
"ZX c #F4B389",
"AX c #EAB496",
"SX c #F4B694",
"DX c #F1AA95",
"FX c #C2B9AB",
"GX c #D8AEA0",
"HX c #EEA991",
"JX c #CAC6B8",
"KX c #D3CBBB",
"LX c #CECBBA",
"PX c #EDC9B4",
"IX c #D3CEC4",
"UX c #F4E1D2",
/* pixels */
"- < - - < < O <   & $ * G -.8.aXcXL.h r H v N +.N N N N F @.@.n D @.#.#.#.$.$.5.:.5.0.:.7.[.1.3.3.2.3.3.3.2.2.1.1.].lXlXkXkX",
"o o o o < o O O + & + + y C ( 3.*XL.h w n : b b ; ; X X X > : b = = 2 2 0 o = = X X ; o G 7.-.1.9.3.8.9.9.8.3.9.[.-.Z < 2 2 ",
"o o - = - - < O o 3 +   . . u { *XP.h % , > : ; = = 2 2 ; > ; : m m f 2 = > = ; 1 = o o #.].e.].8.W.9.9.9.9.W.[.[.'   X = 2 ",
"= - - 0 - 0 3 O + $ + . .   u -.%XP.h * n : b b c c 7 7 , : : , Z m m f < 1 1 2 v 7 1 0 =.].[.].W.9.W.W.9.{.W.9.OX[ f f F M ",
"o o o o o 0 O O   + + + + . k <.&X{.x r p v m v m 7 0 0   < v n u g f f 7 O X     X 1 3 =.q.q.uXoXoX!.!.W.!.].].oX#.0 0 1 2 ",
"X o o o o o o o   + . + +   8 <.*X{.E g i 8 m v m f g x S G H n ( [ G S Z j ,   X 3 Z Z :.iXiXgXaXpXpXoXoXoXXXXX[.[ m m m 1 ",
"o o o o = o O O & O + % $   5 -.&X.X/ r C n H V S ' [ -.[ [ A i S A A A A C y 3 3 k S Z :.q.w.dXsXdXpXuXoXoXoXuXoX8.;.:.#.Z ",
"< < < 1 3 6 3 3 8 5 $ 4 4 + l <..X{.{ h A S ( G -.{ x g * % r z r r r r z ^ A A A G ' H ;.iX0XsXpXpXiXoX!.oXoXuX].9.7.e.0.0.",
"o - 6 7 6 7 j V H 8 & & 4 $ j <.{.&Xx g { z ( ^ x E x x t ^ ) ) E T t r w r T ( [ ( k ( e.wXiXsXsXdXuXXX].].oXoX].[ ' [ #.#.",
"< 6 7 6 6 6 9 v 9 9 & 4 j & j { {.*X/ x T % ^ { 4.P.P.O.X.J.^.~.J.D.X.{ E z t r T [ ( [ 7.wXiXiXdXdXuXuXoXaXuXoX9.' V Z Z Z ",
"1 6 7 6 3 7 7 V 9 5 & 4 j 4 V -.{.&X} h T T >.L.&X*X#X}.@X%XzXzXfXzX$X+XP. .U w r ( { ( 6.iXdXwXiX0XoXXXuXuX].].aX9.2.7.7.7.",
"< < < 1 6 7 V Z H V & & 4 4 z -..X{.T h o.~.fX,X#X3X3X3X,X3XxXzXvXcXvXcX%X.XX./ w z T G ;.wX0XwXiXdXeXuXaXaXaXoXaX[.9.9.e.e.",
"< < 0 < 3 7 m V Z Z $ + 4 $ y { G.O.W } Q.zXbXcX3X2X4X4X2XmXNXNXMXxXvXvXvX3X&XP.E z r A ;.;.;.6.w.w.0Xw.].uXaXaX1.' ' ' G G ",
"1 1 < 1 7 1 3 O , 4 $ $ 4 +   r r Q X.L.$XzXvXvX2X4X5X5X5XBXMXHXAXHXvXvXvXcX%X%X4.W r T ,.6.6.0.0.w.0XwXiXuXsXgX2.:.-.;.=.=.",
"7 1 < 1 1 3 o     + + + & .   @ @ U K.$XfXxXvXmX4X5X5X5X5X5XBXHXSXSXMXvX2X3X,X%X+X>.z A :.6.:.5.7.w.iXeX].q.XXaXJXkXjXjXjXJX",
"= = = 1 7 1 o   X O     +     * t ! ^.,X;XzX2X3X5X5X5X5XZXBXBXSXBXHXHXMXvX2XcX3XhX}.{ h ^ H s , 6 H G ( d 0 5 d g 0 5 V F =.",
"c = = 2 > o 2 o X > > : v v b % P C.@X#X:X<X<XvXxXNXBXZXCXCXBXZXZXZXVXAXAXvXcX,X,X#XK.! T A A & Z 9 9 Z n , X X X X X + O < ",
"M M M +.M M M c M b b b b N b s ! I. X X@X:X<XvXbXMXVXSXZXBXZXZXNXNXmXvXvXcXvXzX#X:X XX.W E S H u 4 p Z n , X , 6 , - - < 6 ",
"eXeXeXeXr.&.&.%.M M c c b b b s L.#X#X|.:XvXxXvXMXAXAXSXVXCXCXCXBXCXAXAXGXbXcXxX#X:X@XK.} A S [ 4 4 n Z n , : , , : : - - O ",
"c c c M M M *.*.+.M b M b ; s H J.|.|.|.:X,X,XvXAXAXAXAXVXAXVXCXNXMXAXAXbXnXzX,X,X;X@XY.o.z S =.* 4 n Z 9 O > : b , : > o o ",
"n , c b c *.8XrX&.&.&.&.@.b v A G.}.@X#X,XzXzXbXGXAXAXDXAXSXVXmXNXvXvXcXcXcXnXnXzX:X$XT.o.z Z G y u C C 4 X > , v v v 1 2 - ",
":.@.N b +.&.rXrXrX8X8XtX$.: , A {.}.@XT.^.L.L.^./.zXbXbXmXvX,X@XC.N.| } _ >.J.Q.@X$X#X+X>.A C S C C C u , $ , : : 6 : - - o ",
",.t.D N +.9XrXrXyXrXrXtX&.: - ^ P.Z.} Q W U L Y M.K.,XcXvX3XT.m.L J e q w t t R M.T.%X@X>.z l Z k k y & $ - , , : - ; ; = o ",
"wX~.6.5.7XrXyX8XrX8XqXtX$.c m { 4.} U q L L L R _ H.%XbXbXcXU.! ! _ .... . .} / Y M.,X+XX.z l C l g +     O , - : : 1 : : < ",
"J.6.t.@.&.7XrX8X8X8X7XqX&.  -.{ O.t U X.....X.W ....K.vXPXvX}.Z.B...>.J.^./.&X$XY.M.@X,X>.h z S 3.9.,.,.6.6.0X:.- : ; : > : ",
"~.~.t.b %.7XyX8X8X7X9XqX5.X ' C E Q O.H.L.+X^.X._ _ F.xXAXvXT.N.] F.$XcXnXhX&XK.@X}.:X,XG.E l z hXjXgXgXsXsXlX6.- > > : ; > ",
"wX~.t.b $.9XyXrXqX9X9X9X$.X ( ( o.{.}.}.^.Y.D.M.` _ D.,XbX<XR.C.H.H.M./ / >.Q./.|.>X:X;XK./ x ^ 9.9.W.q.6.w.wX@.: > ; ; ; ; ",
"6.6.D D $.&.0X9X9X9X9Xr.$.X @.[ Z.C.| ] | L q R .._ D.1XmX<X|.T.m.M.! e e W D.M.|.:X=X|.Y.W z <.OXXXoXiX6.dXkX:.- : ; ; ; > ",
"t.t.D @.@.b +.+.+.$.9X0X0.c : % O.C.] Q ] U L m.T.F.Y.,XNX<X=X:XI.T.H.o.X.K.Y.F.-X-X=X=XU.Q E OXLXFXJXJXsXkXIX5.: ; : ; ; ; ",
"5.0X:.5.@.b c 2 c @.r.0.0.v > . O.|.A.| C.}.Y./.:XR.R.<XmX<X>X<XMXxX,X^.^.zXvX<X5X>X-X-XU.!  .*X*XaXOXgXuXpXdXD : ; ; ; ; ; ",
":.:.t.5.$.c 1 = v N #.D @.: ; A X.|. XC.|.:X;X#X,X/.R.2XCX<X;X2X<X4XmXAXAXbX3X,X5X>X-X=XA.Z.P..X9.3.-.9.7.7.6.D : : ; ; ; ; ",
"b b > v n . @ . . @ r . p @ # ) L.|.-X:X3X;X;XHX1XR._.4XZX>X=X>XMXNXAXAXAXvXVXSX>X>X>X=XC.U.}.4.o.' * g Z n n , - > : ; ; ; ",
"[.[.7.6.~.~.F.D.F.F.N.~ ~ z.V.z.I.).<X<X>X6XxX4X;X;X1XBXZXBX>X;X6XVXAXmXCXSXSXCX4X4X-XU.U.|.T.L.,.n - - m Z , 6 X X X > > = ",
"[.[.aXkXGXzX1XxXE.(.).`.V.b.'.`.A.=X>X<X<X6X6X6XR.).6XSXSXBX>X1X<XNXCXmXvXCX5X4X4X:X-X:XE.m.F.$X<.G H v 3 9 < G 9 6 6 , & , ",
"aXOXfXzXwXc.l.z.c.z.k.V.b.k.f.V.V.=X:X<X<X<X2X2X_.|.:XNXVX<X;X>X;X2XMXVXCXVX4X3X3X-X=X:XU.m.M.^.A Z =.H < 7 ' ].w.w.e.e.0.e.",
"4.4.D.~.z.l.a.a.c.l.a.k.b.b.n.k.A.U.:X<X<X4X2X3X|.I.I.@X;XT.F.H.R.,XNXNXCXCXCX4X>X3X@XI.I.T.R.J.@ f =.G f F 1.kXkXlXlXlXsXsX",
" ...x.x.z.v.d.y.c.c.v.k.k.b.b.c.V. X|.3X3X3X2X3XC.] | H.Y.M._ ! R.<XmX2X3X4XmX3X:X3X|.H.H./.^.Q.l C =.G j S ' 7.9.9.e.9.e.9.",
"xX_.F.I y.p.u.y.u.v.c.d.u.s.b.b.B.A. X-X3X3X3X3X}.| U } M...| ../.<XNXvX2X4X4X2X:X@X}.U.G.D.^.nXjXgXjXlXsXsXuXaX].].q.].q.q.",
"BX_.z.i.u.v.f.v.y.v.b.c.v.d.n.V.S.C. X#X:X3X:X:X|.m.L Y _ _ ` F.T.:XmXNX2X2X2X3X#X}.Y.H.M.H.hXPXJXjXJXjXjXjXgXsXjXkXhXgXgXgX",
"z.I y.d.c.g.u.u.u.u.d.V.`.c.d.l.S.M. X X-X:X:X|.N.Y L Q _ P P K m.E.>X,X>X3X3X#X}.@XH. .>.cXPXPXKXJXKXJXjXLXjXjXgXgXgXgXaXaX",
"j.i.j.s.s.f.s.u.y.p.x.l.j.~ x.x.~ ] N.U.<X;XA.S.S.S.N.R.1X<X_./.I.I.B.m.C.:X<X@X@XK.K.Q P.UXPXUXKXKXIXIXKXKXKXIXLXLXLXLXLXJX",
"j.j.j.i.s.k.s.y.a.a.I K K K I ` Y ~ h.I.;XN.~ ~ V.A.A.)._._././._./.N.~ S.U.#X|.}.P.G.h W.UXFXGXKXJXJXFXFXFXjXjXjXjXFXjXjXhX",
"j.j.s.s.d.d.i.y.p.K e q q q J J Y K Y F.E.S.Y h.h.h.h.h.z.z.z.x.h.x.~ Y ~ H.#X%XP.X.} x fXUXKXUXIXIXIXLXLXJXFXJXJXFXFXjXjXhX",
"i.j.s.s.d.d.p.y.I K e q q q q w J e J B.T.N.S.V.h.h.z.V.(.)._./.(.E.E.I.I.@X#X@XM.} h h fXUXjXIXIXKXLXLXJXJXJXIXJXJXJXJXJXJX",
"i.s.g.g.g.d.p.a.I K J e w s % w w q e ! Y.@XU.|.A.=X).>XBXDXDXBX<XHXDXBXxX<X@X}.4./ r r 3.OX2.!.XX9.W.W.!.!.!.!.!.oXoXpXoXpX",
"i.g.g.g.g.f.d.l.` P s s @ @ 9 p @ a r h X.#X#X=X XE.E.)._._._._.E._.1X6X<X,X$XT.o.U r ^ 3.9.2.8.2.<.,.,.,.<.,.,.,.,.<.,.2.8.",
"u.s.g.f.f.v.v.l.l.P e @ . . , 4 $ z r r W P.}.|. XE.A.B.k.x.V.(.1XxXNXxX,X#XL.M.W r x 4.3.-.2.2.2.,.2.2.,.8.8.8.8.8.8.8.8.8.",
"u.s.g.g.f.f.v.l.` I e w # $ O . $ k x r x o.P.|. X=XA.~ I I B.(.1X1XxX<X,X/.G...T % x 3.' + &   @ + % $ 4 p n i -.:.[ =.( ( ",
"y.s.f.g.f.f.f.p.l.l.K # @ +   0 + z W t r W G.L.@X:X#XU.N.N.=XBXxXAXAXxX$XK.../ a w <.) { p p @         +     f G G ' =.=.=.",
"y.s.g.g.d.f.d.p.p.` J q # $ 0 g o.>.o.U r U ..G.$X,X,X;XR.R.>XHXHXxXzX$XQ.>./ U e ) fX<.a % p p + +     0   + H [ =.=.;.1.7.",
"I s.s.i.d.v.p.l.l.` J q r g g { .X+XP.} L t Q ..L.^.$X$X/.R.$X1XzX+XL.Y.F._ L q / ~.hX~.% p p i y d +         V -.:.-.1.1.7.",
"I j.k.p.l.x.a.l.` P J e a r S [..XL.L.Z.! t t Q ..M.H.K.K.H.K.K.K.D.X.D.m.R L Y F.^.fXJ.# C & 9 j V d & 0     V =.:.-.;.1.1.",
"I i.x.l.x.x.I R P e e r w . l 8.^.Y.Y.Y.M.Y t L R _ } ....>.>.>.) _ _ _ Y J Y m.@X+XQ.J.r i X v O j Z j Z d V ' -.;.1.7.e.e.",
"K a.l.` ` ` R P e a w p * . s >.%X|.U.U.C.! Y L L Y U U T T T T T T L J e J ~ E.;XR.$X4.w + > H O d V j S j k G 7.7.e.q.].].",
"K l.` P P P a a i k p p i s % ^ %X XU.U.U.C.! L t t t t q w w w z h t L Y ] A.=X;XR.zX .w   6 N 3 V d 5 f f & d =.:.2.e.].XX",
"K ` R P a a p y l j , 4 C , @ q L.U.U.T.#X|.m.Y J L t e w # % % r r t Q B.E.-X-X;XR.$XT % , m = 7 k 5 3 d j d Z 0 d #.1.].uX",
"P P L a a y g f d f 0 3 u n s # R }.T.}.U.,XH.Z._ W h e w # % # r T  .J.R.;X;X:X=X}.+Xw % 9 1 v 5 5 5 5 8 j 8 j & 5 j C S [ ",
"s P a a y 8 8 f d 7 < 3 p p s w # } T.+X#XT.T.Y.H.>...) ) ) ( ^ ^ >.Q.$X@XT.|.|.,XY.G.# % $ 1 D 7 5 8 5 5 5 d 8 j d d j f 8 ",
"a a a i y j f 5 d f 6 3 v s s # @ r J.+X%XH.}.H.T.T.K.K.J.J.J.3.J.Q.OX^.^.^.@X,XQ.o.^ @ * $ - H 5 5 5 d 8 d 8 d d d 8 8 5 8 ",
"a a i l y y 8 8 d f 7 3 p p s , w . ^ >.L.L.@XH.Y.Y.L.K.K.~.~.~.^.Q.K.Q.$XfX&X.XT z h @ 5 4 3 V 5 d 5 d 5 5 8 d 5 5 8 d j V ",
"H a n i u u y 8 u 5 4 9 9 p 9 4 $   @ ^ E L.+XY.I.I.K.H.K.K.Q.^.L.L.+XfXfXOX<.z   C y & * 8 4 8 8 8 8 5 8 8 5 5 8 d 8 8 8 7 ",
"n i i i i p u p p u 9 p 9 9 4 6 o 7 O l . W ..H.I.U.U.U.L.T.^.+X}.@X%X+XJ.[ 4   0 [ d 9 . * i u y d d 8 8 8 5 5 j 8 d 8 5 5 ",
"V k i i p i p p p p p u 4 5 4 7 c m v j w # q Y ] S.m.m.m.m.M.M.Z.M...E r + + = D $.< m & & p z j y 8 8 f 8 5 5 5 5 8 y j k ",
"j k k n i p a p p p p y 8 4 5 7 B = 7 y -.@ w e q e J K J J J e e q # @ @ + = = +.@.  F j * * x y d 8 8 5 5 4 5 d d d d d f "
};
