/* XPM */
static char *d8eed25758314ff6ebdf4656ec6a33d8UKOVnC1sPnRDeIPs[] = {
/* columns rows colors chars-per-pixel */
"58 64 241 2 ",
"   c #16191C",
".  c #1B1A1D",
"X  c #171618",
"o  c #11100E",
"O  c #26231B",
"+  c #39291B",
"@  c #171A22",
"#  c #191B25",
"$  c #1A1C29",
"%  c #141622",
"&  c #241C22",
"*  c #1E2129",
"=  c #272628",
"-  c #332D23",
";  c #392C25",
":  c #3D3325",
">  c #3C342A",
",  c #36352B",
"<  c #393736",
"1  c #2C2E33",
"2  c #2C1B0F",
"3  c #4B2818",
"4  c #513117",
"5  c #453A2D",
"6  c #453629",
"7  c #563627",
"8  c #473B37",
"9  c #4E2F27",
"0  c #653E34",
"q  c #62382C",
"w  c #431D12",
"e  c #3E433C",
"r  c #4A4438",
"t  c #53493C",
"y  c #574739",
"u  c #584B36",
"i  c #684639",
"p  c #744A3C",
"a  c #68523C",
"s  c #78543A",
"d  c #69462C",
"f  c #3A3D43",
"g  c #513C42",
"h  c #3D454A",
"j  c #3C4247",
"k  c #3C4753",
"l  c #444443",
"z  c #4B4543",
"x  c #494B46",
"c  c #4C4C4C",
"v  c #45494B",
"b  c #544D4B",
"n  c #584A46",
"m  c #53534D",
"M  c #5B5448",
"N  c #4C4C53",
"B  c #464D57",
"V  c #524D54",
"C  c #4C535D",
"Z  c #4A5156",
"A  c #545352",
"S  c #5B5453",
"D  c #53555B",
"F  c #5C5B5B",
"G  c #5A5956",
"H  c #4E5248",
"J  c #654B47",
"K  c #744E44",
"L  c #675949",
"P  c #785748",
"I  c #665C57",
"U  c #765C54",
"Y  c #5B615A",
"T  c #6D624E",
"R  c #78624A",
"E  c #6B6458",
"W  c #726B5C",
"Q  c #78675B",
"!  c #76715B",
"~  c #4D5661",
"^  c #4E5963",
"/  c #4A5A6A",
"(  c #485669",
")  c #525661",
"_  c #525B64",
"`  c #5C5D63",
"'  c #545D6A",
"]  c #595D68",
"[  c #4B5C72",
"{  c #635E63",
"}  c #55616A",
"|  c #5B636C",
" . c #596263",
".. c #5E6973",
"X. c #586675",
"o. c #646264",
"O. c #63646C",
"+. c #6B6A6C",
"@. c #696868",
"#. c #766966",
"$. c #787269",
"%. c #646A74",
"&. c #6C6C74",
"*. c #6C6E79",
"=. c #636975",
"-. c #736F74",
";. c #66717B",
":. c #6A737B",
">. c #6A7176",
",. c #73747B",
"<. c #767778",
"1. c #835A4A",
"2. c #865C53",
"3. c #905A54",
"4. c #87664C",
"5. c #876757",
"6. c #96695A",
"7. c #8C735A",
"8. c #96755B",
"9. c #9A6D62",
"0. c #88776A",
"q. c #9C7365",
"w. c #977867",
"e. c #887B76",
"r. c #9A7875",
"t. c #8C6962",
"y. c #A36B65",
"u. c #A77768",
"i. c #A57E73",
"p. c #B37C74",
"a. c #B17C6A",
"s. c #A0745E",
"d. c #7D8173",
"f. c #8B8369",
"g. c #96866B",
"h. c #8B8375",
"j. c #988A7A",
"k. c #9C947B",
"l. c #9C9677",
"z. c #A5846B",
"x. c #B3806E",
"c. c #A98776",
"v. c #B8887B",
"b. c #A29C7E",
"n. c #A7927B",
"m. c #B2957B",
"M. c #C28D7C",
"N. c #687583",
"B. c #747A85",
"V. c #747E89",
"C. c #7B7D8A",
"Z. c #777984",
"A. c #6E7287",
"S. c #7B8389",
"D. c #7C8194",
"F. c #888988",
"G. c #968A85",
"H. c #8E928C",
"J. c #9A9587",
"K. c #858794",
"L. c #8B9493",
"P. c #979996",
"I. c #A88B85",
"U. c #B78C81",
"Y. c #A59D84",
"T. c #A79889",
"R. c #BB9386",
"E. c #B89787",
"W. c #A89D96",
"Q. c #B69B95",
"!. c #AF8F90",
"~. c #9AA398",
"^. c #A6A081",
"/. c #ACA48C",
"(. c #AAA488",
"). c #B5A78D",
"_. c #A9A598",
"`. c #B4AC93",
"'. c #B7A899",
"]. c #BBB39B",
"[. c #B8B297",
"{. c #9BA5A3",
"}. c #A9A9A3",
"|. c #B7AAA5",
" X c #B9B5A7",
".X c #B9B9B6",
"XX c #AAAFB0",
"oX c #8B8EA1",
"OX c #C48D84",
"+X c #C39A8D",
"@X c #C89788",
"#X c #D29B8B",
"$X c #C69C94",
"%X c #D49D92",
"&X c #C4A389",
"*X c #CBA193",
"=X c #C6A69A",
"-X c #D3A595",
";X c #DBAC9C",
":X c #D6A698",
">X c #CDB39B",
",X c #E1B19E",
"<X c #E1AA9E",
"1X c #C9ACA6",
"2X c #DAABA3",
"3X c #C2BAA4",
"4X c #C7B9A8",
"5X c #D8B6A6",
"6X c #C8BCB3",
"7X c #D8BBB3",
"8X c #E5B5A3",
"9X c #EDBDAB",
"0X c #E8B7A7",
"qX c #F2BCAB",
"wX c #EBB7AE",
"eX c #C9C2AA",
"rX c #CCC4B7",
"tX c #D9C6B8",
"yX c #D8CDB8",
"uX c #F2C2AD",
"iX c #E6C6B8",
"pX c #F4C5B1",
"aX c #FCCDBA",
"sX c #F7C9B6",
"dX c #FED4BE",
"fX c #F4D1BE",
"gX c #EAC2AD",
"hX c #B7BCC3",
"jX c #BEC1C9",
"kX c #C7C8C9",
"lX c #D5D5D7",
"zX c #D6D3CA",
"xX c #FED4C2",
"cX c #FDDCCC",
"vX c #FAD6C6",
"bX c #ECCEC6",
"nX c #FCE7D8",
"mX c #F1E1D0",
"MX c #D3DAE3",
"NX c #E9EAE7",
"BX c #DFE0DA",
/* pixels */
"D ) _ ] ' ] | | ....=.N.N.A.V.V.A.C.C.D.D.K.D.K.K.D.K.C.C.C.C.C.Z.<.S.S.B.B.B.C.C.C.A.V.A.A.;.;.;.X.d.X.X.;.;...S.;.",
"B B B C C C ~ ~ _ _ _ ~ / / / ^ ] O.O.=.=.{ O.O.=.*.-.Z.C.C.C.C.C.S.S.K.K.K.K.oXC.C.C.D.D.D.S.S.S.S.S.S.S.S.S.S.;...",
"B B B C C C C C C C C ( ~ ~ _ ) B C C ) ) ) ) ) ) ] O.=.=.O.] { O. . ._ ] =.N.X.N.N.N.N.N.N.S.S.S.S.S.S.S.S.d.S.S.S.",
"C C C C ~ ) ~ _ / ) _ _ _ ' ' ' ) ) ] O.=.&.=.*.A.Z.Z.C.C.C.Z.Z.>.>. .^ ) ( ' ( ( ( / [ [ X./ } } X.X.[ ....X...X.;.",
"C C C C C ) C C  ._ _ C ~ C B B =.=.A.-.Z.C.D.C.Z.Z.Z.C.C.K.K.oXF.S.*.] ~ ( [ ( [ [ ( ( / / / ( / ^ ^ ^ ^ ^ ^ ^ / k ",
"C B C B C B C C B B C D ) ) ] ] -.A.Z.Z.Z.Z.Z.Z.*.=.&.O.O.=.-.A.:.Z.*.) B ( ( ( [ [ [ [ / / / ~ ^ ^ ^ ^ ^ ^ ^ ^ } } ",
"_ _ _ ~ _ ^ ) D N B D ) O.%.&.-.A.&.*.&.-.A.&.&.K.D.C.-.&.&.O.&.<.F.C.+.) [ ] [ [ [ / ( ( ( ( ( / ^ ^  . .^  .^ ^ ^ ",
"=.=.=...=.O.O.%.+.%.O.O.o.` { ` { { { #.&.&.-.-.-.-.-.-.&.+.O.{ +.e.C.] g B ( ( ( ( [ / / / ( / ^ ^ ^ ^ ^ ^ ^ ^ } } ",
"X...' ~ ' *.:.+.+.*.<.+.F V S { S I { { { #.-.-.{ #.-.<.-.#.-.#.-.e.F.-.%.O...X.X.[ [ N.[ [ X.[ ^ ^ } ^ } ^ ^ C ^ ^ ",
"X...| _ | *.*.=.%.+.+.o.F S S S I I { #.#.Q #.#.0.e.e.e.e.e.e.e.0.G.J.-.O.>.:.;.N.N.N.N.N.A.A.N.>...>.;.;.;.;.;.>...",
"=.=.....=.*.*.+.@.{ F S I I I S #.0.e.j.r.r.0.0.G.I.!.W.Q.W.'.'.I.1X|.r.@.+.:.;.X.X.N.[ =.=.=.=.} } | ..............",
"B C B B B C N N { I V b S I #.#.I.E.'.=X|.Q.Q.Q.1X7X7XtX7XbXyXiX7X7X7X|.e.Y Y ..;.N.X.N.*.=.A.*.| | ......>.;.;.>.;.",
"( ( C ~ ~ C V D { S b z n U e.I.3X>XiXtXiXiXiXiXbXbXxXcXcXcXnXcXcXsXiXyX_.E H  ./ } } }  . .{ ]  .} } | } } } } | | ",
"' ' ' } X.' ] +.V b z z n $.P.4XgXgXpXfXfXfXvXcXbXxXcXnXcXcXcXcXcXpXiXvX7Xe.m G Z k Z Z Z Z V V C C C C Z ^ Z Z k k ",
"k f k k f f v D b z 8 b Q G.|.7XgXgXpXfXsXsXdXdXsXdXxXxXcXdXdXxXxXsXpXfXtX_.#.x  . . .| O.{ { {  .} } | | } } }  .} ",
"k k h h v f N ` c 8 8 n 0.Q.6XiXgXgXpXsXpXpXpXpXpXaXdXdXdXdXdXdXaXdXsXgXtX4Xe., H h H H c N V c B k B Z Z C C Z ^ C ",
"&.D v O.` N @.o.l 8 8 J G.Q.>XwXgXuXuXuXuXuXuXpXdXaXsXpXsXsXdXaXsXdXuXgXgXtXh., H e j v f N B f h h h h l h h j h h ",
"F.H.<.F.<.<.<.l g g 8 U I.*X=X9X8X8X0X0X0X0XqXqX0X,XqXqXpXaXdXdXpXaXpX5XgXtX`.#.Y H Y | _ X.=.| D D D A Z N Z N v v ",
"zXNXlXlXlXMXkX{ < 8 0 #.E.=X=X5X,X,X,X,X,X9X,X,XaXsXpXuXqX,XuX,XqXpXuX,X>XtXrX`.$.@.,.N.| =.A.=.S.d.:.>.*.&.=.{ >.%.",
"H.}._.P.P.}.P.< < 8 z 0.'.5X:X5X;X;X,X,X,X,X,XuX,X,X,X0X,XuXuXpXqXqXuX8X5XyXiXrXNXBXBXNXMXlXMXMXjXjXjXjXhXhXhXhXXXXX",
"E @.o.+.+.&.<.l 1 8 J 0.=X1X=X-X:X:X;X;X,X,X,X,X-X:X;X5X0X0X9XqXqXqXuXdXvXbXyXrXrX~.~.XXXX.XhXXXjXjXhXkXhXkXjXjXMXlX",
"l z < x g f F v < 8 n e.=X5X&X*X#X&X*X-X;X;X;X;XwX8X8X8X8X,X;X;XuXuXdXcXnXvXtX XJ.+.Y +.&.>.N.=.%.%.=.+.*.=.=.=.| O.",
"m A x D N N -.S < l J 0.'.>XQ.*X&X#X*X-X:X:X;X;X-X:X2XwXsXxXcXcXdXdXdXcXnXiX1XQ.}.e.o.@.` D ` _ C B N N B B g B N N ",
"x m x m c F -.c g z J 0.Q.=XE.*X*X-X*X:X:X;X,X,X9XsXaXxXxXcXxXxXdXdXdXcXbX1XQ.Q.W.$.I E V N ` { ] ` ` D ) V C B B v ",
"x b m c x c D o.< n J #.Q.=XU.:XR.+X$X-X:X2X8XwXfXwX5XwXsXbXaXxXfXfXiXwX7Xc.t.Q Z.U V { { V A D N V V Z N v c N g v ",
"x m A A c N F o.z b J #.I.E.E.E.@X*X-X*X$XOX$X*X-X+XU.+X@X@X$X$X:X-X*Xv.5.J K Q r.t.S g g D ` ` -.` V V V V f < f f ",
"e e x l j l c V b 8 8 U w.c.E.E.R.+X+X+XU.c.U.U.R.i.q.9.9.t.9.y.w.P U K 9 0 r.I.1X!.r.J V { { A m x l z b S m x V b ",
"+.$.-.-.-.-.<.e.#.z n U U w.E.c.v.v.U.R.R.+X+X@Xv.u.9.5.2.1.2.5.4.3 7 0 9 2.!.I.!.!.Z.V g S S N z G I b < < x m #.+.",
"kXkXkXkXkXzXkXlXF.{ J U U t.E.v.Q.R.U.U.$X$XR.!.2.2.P 2.P K P 5.r.J J r.2.3.r.t.7XbXlXhX|..XkXkXkXzXzX4XY.~._.`._._.",
"G T F F  .` ` { -.L n J J 5.c.+X$XR.I.c.U.c.9.2.q 0 i K K K K 2.y.K r.7X$Xr.p.!.1X7XbX1XJ.G.P.~.J.J.H.(.eXBXBXrX X X",
"x x x c V N b N I S 8 8 0 a 6.E.E.U.c.i.9.2.P K 0 0 K 2.3.P K 2.U J r.bXcX$XQ.bX2X1XQ.G.@.n H m E W #.j.rXNXzX[.$.! ",
"H.H.H.F.H.P.G.G.G.G.U 0 7 9 i q.R.R.E.v.q.2.P P 2.t.q.i.u.t.2.2.r.p 3.wXnX$XI.wX7X=XI.j.e.0.h.H.J./._.~._.(.d.r M H ",
"{.{.{.}.}.W.|.1XQ.i.c.u.4.d d x.-X-XM.M.v.v.u.3.y.y.3.y.3.3.3.y.v.1.p.wXqXaX<X3.9.p.I.=XmXnXrX4X XH.h.d.H e e Y H H ",
"k v N V V g J U i.5.w.u.4.s d 6.&X&XM.M.M.@Xp.y.OX$XOXp.y.p.OX%Xp.3.OXqXwXqXwXv.u.v.c.+XvXbX'.W.E e H Y H e r t e e ",
"{.{.{.W.Q.}.Q.1Xt.2.u.8.s.s.s 4.M.#XM.#X#X:X#Xp.OXwXbXwX2XwX<XOXy.y.<XqX<XwXxX<X9.q.9.Q.mXnXeX'.H = H H +.e G e e e ",
"} } F { #.{ #.2.r.q.8.4.s.z.6.4.M.M.M.#X#X,X<X<Xp.2XbXwXwX2XOXy.3.v.<X<X%XwXsXwXy.2.U n.bXmX3Xj.Y   e = Y 1 H 1 - e ",
"L.L.~.~.W.}.|.|.=XI.w.P 4.x.w.8.m.M.M.M.#X<X<XqXOXp.p.p.y.y.y.3.u.OX;X:X$X2XwX$Xt.p J I.zXnXyX_.Y = e * | l @.v e H ",
"L.~.XX.X.X.X6X7XbX'.I.4.5.m.c.c.x.M.#XM.OX%X<X<X%XOXy.y.y.y.y.y.q.c.x.u.p.p.i.y.U 7 0 0.`. X|.k.Y 1 v j +.Z | h j Z ",
"<.~..X.X.XrXkXtXbX4X=Xc.z.Q.E.R.a.x.M.M.OXOX%X%X%X#XOXOXOXp.y.y.1.1.p i 1.1.K J P 7 y L 5 O O o 1   1 1 1 * 1 @ @ * ",
"Y S.{.XX}.|.1X6X6X1X4XT.n.=Xn.E.x.x.a.x.OX#X%Xp.p.#XOXp.3.y.3.p K d 3 3 0 0 7 0 0 9 L T 2 o O = *   % * % @ * * * * ",
"h ~.P.P.|.}.6XrXrXrXrX4X'.E.Q.=Xs.s.s.a.a.a.M.M.v.v.OXy.p 1.3.q q 7 4 4 4 0 P t.c.L 9 8 ; o X . $ % $ $ $ $ $ # * * ",
"l L.H.H.}.{.XX X.XrXtXtX6X=XI.t.s.s.s.s.s.a.a.s.u.u.y.2.q 7 q 3 7 4 4 s q.I.c.r.Q.5.6 g 6 X O X $ $ $ $ $ # $ # * * ",
"x P.H.H._.~._.}. X.XrXrXtX5XI.K 4.4.4.6.u.u.s.6.c.y.K 4 w w q 1.8.4.6.z.+X$X!.i.1Xr.8 8 8 & & X @ @ $ @ $ @ @ # $ $ ",
"H P.H.H.~.~.~.{.}. X X X6XzX|.w.6.1.4.6.z.z.q.4.w.p.p 2 w q 0 3.z.z.c.x.i.U.R.$X1XI.J g g & & % @ @ @ @ @ @ @ * $ $ ",
"m ~.P.L.~.~.~.~.~.}.}._.|.6X1X!.8.R s 8.z.z.w.7.a w.5.4 7 i y i p 1.4.8.u.v.$X2XQ.!.K g g $ & % @ @ @ @     @ @ @ @ ",
"m ~.P.h.P.L.L.~.~.~.XX X|.W.T.j.g.4.R 7.g.w.8.7.d R P 9 7 P P R s s 4.u.v.R.p.r.r.I.g < g & & & @                   ",
"M _.~.H.~.L.~.~.~.~._.}.W.e.Q Q z.4.R 4.7.7.5.5.i 6 9 4 3 y 5.w.u.s.8.y.u.9.1.0 3.r.g 9 V g & &                 @ @ ",
"G }.~.~._.~.~.~. XH.G.W.P.#.n u b.7.R ! R R P ! a 2 + r + 2 6 J w.8.8.P q 7 0 U J r.g ; { g 1 &                     ",
"_.[._.J.b.`.`.(.(.J.k.J.$.M r 5 z.m.R R R a T T r e - - - O - - a P 5.Q J n I t.#.I z 8 z S < X   o o o . =   o X % ",
"'.[.].^.b.(.^.l.b.l.b.f.! t 5 + l.m.4.7.f.a a M t r , - - , , , 6 y L U U L J M I I b r z A N g . 1 1 * . o . = = 1 ",
"(.`.`.).b.b.b.b.f.f.l.d.E L n : z.m.g.z.f.R T T L t > - - , , > > 6 6 y L J 8 6 8 8 b b b A $.H.#.m < = O = O   & & ",
"j.J.).`.(.b.b.b.f.l.(.h.L E W + z.m.z.z.g.4.R R T u : - > r > : 5 6 6 6 5 r 6 ; 6 ; 8 n b m e..XJ.@., = , e e , - O ",
"j.l.^.`.`.b.l.b.l.k.`.k.I W W + g.m.m.m.z.4.f.4.T u 6 + : 6 : - 6 6 6 3 6 ; ; ; 8 5 8 b b x $.}..X.X X}._.}..XzXM < ",
"/.k.Y.`.[.l.l.b.g.f.(.J.T $.e.5 g.>Xm.m.m.8.f.4.R a u 6 6 r 5 + + 6 5 5 5 6 : ; 8 ; > r M M e._.(._._. X X X X XJ.W ",
" XY.J.`.[.l.f.l.f.! k.Y.Q 0.j.n 4.m.m.m.m.z.z.4.4.R a u u u r 6 : 6 6 5 5 6 6 > + - > t S #.G.|. X`._._. X]._.Y.rX].",
"eX(.k.`.[.l.g.l.^.f./.).E ! e.r s m.>Xm.m.z.z.4.4.4.R T a u u u M y > + ; > 6 5 5 r t n M E h.(. XeX3X`.b.J.[.rXeX[.",
"eXb.3Xb.^.3Xb.b.^./.k.(.0.h.G t u z.).m.m.z.8.z.4.4.R T a L T T L t 5 5 : - : r 6 u T t j.! j.'.eX/.3X3X].eXeXeX3X3X",
"eX).[.b.).[.b.).b./.J.`.j.G.I t u 0.n.c.c.z.8.4.s s s a a T $.$.W M r r 5 : : r r u T t j.$.j.].eX(.[.[.].yXeX3X[.[.",
"eX[.[.b.[.[.b.b.l./.^.[.J.T.$.W E 0.k.T.g.8.4.d 4 4 4 4 7 r M T W M t t r r r u r u T L k.g.k.].3X(.[./.[.yXeX).[.[.",
"eX[.[.[.[.[.m.b.b.).l./.j.W.J.J.W L e./.n.8.R 4 4 4 4 3 + 6 r u b r r r t a T T u T a T j.g.k.1X[.(.].(.[.yX4X(.[.[.",
"3X[.[.[.[.[.[.b.^.`.Y./.j._.W.W.-.H W k.g.z.8.d d d s a a M Y Y , - e r T E ! ! u T u L f.n.l.3X[.(.3X'.W.4X].Y./.`.",
"3X3X(.[.3X[.[.b.^.[.). XJ._.j.G.~.$.E $.f.f.8.s 4.f.4.d.! Y M m O O O t E ! E E a T u T w.n.g.3X[.Y.3X].).]./.T.[.|.",
"3XeX/.3XeX[.3X^.k.[.).].T.W.G.F.hXL.W $.g.f.4.z.8.g.f.4.T H r e O o - t E ! T M u T u T g.(.c.>X4XY.|.4X|.].J.T. X X",
"3XeX(.3XeX).eXb.l.`.b._.j.W.J.J.XXH.@.0.(.z.f.z.8.g.f.R T M Y H O o - H ! ! T u u T u 7.c.).g.).yXJ.`.4X4X].j.k.].]."
};
