/* XPM */
static char *_ea92e66b2524f81913767a5bbf515c2U1Sw3XNL8mTdT9kg[] = {
/* columns rows colors chars-per-pixel */
"64 48 255 2 ",
"   c #030301",
".  c #0A0502",
"X  c #070802",
"o  c #0B0B04",
"O  c #0C0D09",
"+  c #120C01",
"@  c #110E09",
"#  c #0F110B",
"$  c #0E1205",
"%  c #131204",
"&  c #13140C",
"*  c #16190D",
"=  c #1A1A0D",
"-  c #1A1605",
";  c #151611",
":  c #161912",
">  c #1B1C13",
",  c #1D1C17",
"<  c #0C0C12",
"1  c #231A0A",
"2  c #221C13",
"3  c #221E1A",
"4  c #1F211A",
"5  c #1E2014",
"6  c #1F2B00",
"7  c #28240B",
"8  c #372708",
"9  c #232215",
"0  c #2B2415",
"q  c #23231B",
"w  c #2B2A1D",
"e  c #292719",
"r  c #342C1B",
"t  c #37341B",
"y  c #2F321E",
"u  c #2C2B23",
"i  c #282825",
"p  c #332C22",
"a  c #2E312A",
"s  c #2E3024",
"d  c #333225",
"f  c #33342B",
"g  c #39352A",
"h  c #3B3B2C",
"j  c #3A3825",
"k  c #3C3C32",
"l  c #393835",
"z  c #2E2D33",
"x  c #45381A",
"c  c #452F0A",
"v  c #433D2B",
"b  c #4A3D25",
"n  c #433D32",
"m  c #403F3E",
"M  c #523E23",
"N  c #1C4500",
"B  c #2B4E00",
"V  c #385B01",
"C  c #3D5710",
"Z  c #3A6402",
"A  c #3C432A",
"S  c #3E4038",
"D  c #465800",
"F  c #4D5110",
"G  c #466904",
"H  c #576602",
"J  c #4C7408",
"K  c #577906",
"L  c #566516",
"P  c #5A7616",
"I  c #4F7414",
"U  c #657903",
"Y  c #657B16",
"T  c #6A7505",
"R  c #46462B",
"E  c #55472A",
"W  c #43433B",
"Q  c #4B4B3D",
"!  c #484537",
"~  c #534B3A",
"^  c #4C5436",
"/  c #565939",
"(  c #4F5727",
")  c #685533",
"_  c #5C6F2B",
"`  c #677926",
"'  c #686C3B",
"]  c #6A7838",
"[  c #727936",
"{  c #71762D",
"}  c #413F42",
"|  c #4C4C43",
" . c #484947",
".. c #534D45",
"X. c #4E5245",
"o. c #54534B",
"O. c #575547",
"+. c #4C4D52",
"@. c #5C5C54",
"#. c #595856",
"$. c #625C55",
"%. c #685C44",
"&. c #5C6154",
"*. c #686947",
"=. c #776746",
"-. c #6C7848",
";. c #757B4B",
":. c #63635C",
">. c #686858",
",. c #6C7555",
"<. c #757858",
"1. c #786B5C",
"2. c #5A5963",
"3. c #696965",
"4. c #6F7069",
"5. c #74746D",
"6. c #787768",
"7. c #6A6A72",
"8. c #7B7C73",
"9. c #7C7B7B",
"0. c #757575",
"q. c #716D6D",
"w. c #897756",
"e. c #847D79",
"r. c #8A7C68",
"t. c #5D8410",
"y. c #688605",
"u. c #748807",
"i. c #698615",
"p. c #75891A",
"a. c #78951A",
"s. c #729511",
"d. c #6B8528",
"f. c #768827",
"g. c #799329",
"h. c #798938",
"j. c #7A9436",
"k. c #6D8C30",
"l. c #7DA72B",
"z. c #6F9221",
"x. c #78864B",
"c. c #7F9953",
"v. c #7A8D4F",
"b. c #7E8669",
"n. c #7D8179",
"m. c #879906",
"M. c #879818",
"N. c #87920F",
"B. c #97AA07",
"V. c #8BA318",
"C. c #96AA17",
"Z. c #90A90B",
"A. c #A2B709",
"S. c #A9BB18",
"D. c #A0AF1E",
"F. c #869A28",
"G. c #838C39",
"H. c #869938",
"J. c #8F9931",
"K. c #8DA328",
"L. c #93A82B",
"P. c #89A637",
"I. c #97A839",
"U. c #98B438",
"Y. c #94B42E",
"T. c #A4B528",
"R. c #A7B838",
"E. c #A7B237",
"W. c #B4C91A",
"Q. c #B4C930",
"!. c #9FC035",
"~. c #C3D934",
"^. c #879748",
"/. c #939C46",
"(. c #838956",
"). c #8A9656",
"_. c #939B58",
"`. c #858C4C",
"'. c #8BA644",
"]. c #96A848",
"[. c #9AB44B",
"{. c #98A857",
"}. c #95AD59",
"|. c #A2AB46",
" X c #A6B747",
".X c #A8B857",
"XX c #ACB754",
"oX c #899867",
"OX c #949B67",
"+X c #82847C",
"@X c #878B76",
"#X c #8C9676",
"$X c #949A7B",
"%X c #90876E",
"&X c #9AA868",
"*X c #9DB463",
"=X c #97A876",
"-X c #8FA969",
";X c #A2AC69",
":X c #A7B968",
">X c #A7B778",
",X c #AAB478",
"<X c #AD9774",
"1X c #B6C849",
"2X c #B7C957",
"3X c #B9D256",
"4X c #B2CB4E",
"5X c #ADC867",
"6X c #B5C767",
"7X c #ADC378",
"8X c #B6C776",
"9X c #BCD26E",
"0X c #C7D653",
"qX c #C5D768",
"wX c #C2D179",
"eX c #C3CC6F",
"rX c #D4E66C",
"tX c #DDEE6C",
"yX c #7C7C81",
"uX c #827F83",
"iX c #888887",
"pX c #8F9288",
"aX c #979988",
"sX c #939295",
"dX c #999899",
"fX c #908C8F",
"gX c #A69C8E",
"hX c #9CA386",
"jX c #9EA196",
"kX c #A4AA87",
"lX c #A8B887",
"zX c #A4A499",
"xX c #ABB896",
"cX c #B6BB8F",
"vX c #9D9CA2",
"bX c #AAABA4",
"nX c #A7A6A7",
"mX c #B3B5AA",
"MX c #B7B6B8",
"NX c #B0AEAD",
"BX c #A19CA0",
"VX c #C1B4AD",
"CX c #BAC987",
"ZX c #B5C895",
"AX c #BBC0A9",
"SX c #C5D587",
"DX c #C9D592",
"FX c #D7E496",
"GX c #CAD1AB",
"HX c #DCE8AC",
"JX c #E4F3B1",
"KX c #E8FB86",
"LX c #C1BCC0",
"PX c #C8C8C9",
"IX c #F0FAC9",
/* pixels */
"5Xl.J k.c.I Z Z k.JXJX] *Xj.k.[.].].P.l.s.F.[.5X8X8XCX7X:XCXlXxXZXxX=Xb.hX=X#XhXjXpXb.#XhXhXmXlXf.T p.K.j.h.9X:Xh.,XZXDXlXOXkXVX",
"[.[.z.t.t.Z Z N _ ZXCXY ^.[.P.6X5X'.g.K.s.y.j.5X5Xc.8X7X-X=XZXxXZXlXhXn.b.b.b.n.b.hXhX#X#X#XkX(.].J.F.J.^.h.^.k._ >XGXGX,X' (.cX",
"t.i.t.i.t.J t.Z N t.P.z.t.'.j.v.5X}.z.y.y.y.p.P.g.k.5X*Xc.=XGXxXjXhX#XhXxXxXpXpXn.n.+X@X@X@XhX,XSXeX[.H.{.).h.P L `.IXIXOX{ w.-.",
"P i.l.l.Z Z t.t.t.Z a.P.G g.[.v.-X*Xg.J y.a.a.d.'.j.c.c.>XlXb.^ y 6 y A &.n.sXxXjXpXn.&.>.@XaXb.OX.X:XwXJXDX'.d.Y _ SXcX[ _.OX/ ",
"d.V Z Z J Z Z B G B t.Y.Y d.>X=XlXc.z.t.s.s.t.z.P.d.` ).,X/ %   X $ X   < X 4 } nXMXnXn.:.6.#XpX$XOX;XDXDXwX6XqXF.f.x.` h.,X%X*.",
":Xj.z.G Z N B J Z t.s.3X3X}.=XxXlXc.I Z J J t.d.d.d.^.&X( X   &   . . o # X X < 4 +.pXMXbXsXiXpX@XhXZXSX,X:X5XqX2XF.f.{ `.;X;.*.",
"SX[.t.t.t.Z N Z z.Y.Y.4X4X'.c.-X=Xc.` G V G Z I ^.`.`.v.7 o * @ + .     X O X < < i } &.n.MXNXzX@X=XcX,X;X8X.X5X5Xg.H./.`._.(.;.",
"5X3Xz.t.l.[.Z Z z.i.V.!.l.l.'.-X=Xc.c.f.G V I _ ] -.*.;.7 % 2 & 2 r p 3 &     O : 4 S  .a  .&.pXmX$XOXkX7X{.d.I.[..X8XwXSX;Xx.;.",
"g.[.Y.t.s.l.t.I J K K y.a.g.z.^.c.c.c.c.v.k.v.x./ 4./ R r v g n | ..:.$.p @ . o : # O a a ; :    .bXAXv.{.6XI.p.L.I.I.{.FXHXgXr.",
"j.l.Y.z.t.t.I J d.` P Y p.K J j.=Xc.lXc.v.&.^ X.4.@...o.O...3 3 1 1 b $.@.a   o : i : 5 % % & ; X S aXhX).}.4XF.L.a.f.f.).GXGX$X",
"g.P.[.'.t.Z t.k.}.7X7X*X}.g.P k.c.b.-X-Xk.^ X.+.2.+.#.$.1.6.u + 0 1 0 p 0 j @ + Q Q i * X .   + * o A oX=X^.k.].'.f.p.j._.&X)._.",
"g. X'.'.'.t.k.5X}.7X7X>X8X}.g.j.=XhXb.x.^ X.&.2.2.7.0.3.5.gX3.k ~ - p n + 2 = g 5.S * X @ + . + o = X 7 _.8X^.].H./.H.H.{._.[ [ ",
"M.L.Y j.5X'.g.Y.4XI.f.^.:X}.k.'.kXn.,./ A A  .#.2.7.7.#.5.pXzXiX1.n M 8 3 ..| ..n.S w 4 S d p @   O   $ ( 7X5X'.H.Y H. X{.:X{.{ ",
"u.y.f.].:X'.s.t.4XU.H.^.{.).j.).b.o.A ^ R A  .#.2.+.+.q.iX+XnXNXVXuXr.uXBXe.$.gXb.O.a e Q o.e...i < O * 6 ).CX:X].Y p. XeX,X{.I.",
"N.a.8XDX*X*XU.K y.M.[._.oXoX).x.Q l j A A R ^ | S l 3.+XsXpXvXnXuXVXVXgXr...e.NX4.4.$   > n e.fXl i <   $ -XCX&X{.'.F.M.].XX|.I.",
"N.J.FXHX>X5X.Xs.U u.].;XOXoX-.A f } W j A A S s : a n.5.n.dXvXsXuXuXgXuXe.1.BXuXn.jXw i w 2 e ..2.z < ; 6 (.&X`._.f.].XX/.G.M.N.",
"J.I.XXXXXXeX0XJ.N.p.G._.(.*.R j s l S k f h s 5 $ X.+X5.8.n.sXiXsXfXnXuX0.dXnX7.+XbX1.g + - h %  .S i o 0 &X{.{ Y L ` ^.] ` i.y.",
"D T J.I. X0XeXE.{ J./._.' b t y f f l f f u 5 $ | 6.8.3.sXfX4.9.iXvXdXuXdXPXNXyXdXe.BX6.~ R t w 4 S a 5 *.cX|.E.F.H.G.L C P l.V.",
"D H T M.|.0X0X/.G.`.`.' E t t A W k i i a q 4 a #.3.5.5.iXBX9.q.dXfXiXiXnXPXvXsXbX$.mXgX@X1. .Q S 3.#.X.gXcXI.E.M.|./.L F P l.g.",
"T T L.F.p.J.XXXXG.h.' ( x j h k a a , : 4 * 5 S  . .3.9.iXzXfXsXdXq.iXBXBXMXsXdXsX1.dXzXNXnXnXfXpXn.iXn.$X<X|.L.M.F.J.f.k.P Y s.",
"M.M.L.i.H { |._.] ' / E v g u q i i q 4 , % , W ..o.+.5.vXvXyXsX+Xn.bXbXnXnXvXdXfXyXuXvXMXMXLXNXjXn.iXn.@X_.1XT.T.m.y.T P ` i.P.",
"F.p.Y H H { /.[ _ / ( ! g u 3 3 u d q = : 4 a o.+.o.+.q.fXMXuX+.fXmXMXbXPXvXuXnXuXyXuXvXvXvXiXdXn.n.n.6.6.).XXQ.S.B.T H F h.*XwX",
"g.Y d.` ` ` ;.' ( R j p e q q u q q * O * f | X.m m 2.2.yXNXMXz 4.bXbXMXPXsXyXnXyX7.sXvXvXdXsXiX4.pXyX5.<.(.E.W.S.A.B.u.H { {.wX",
".Xk.f.v.c.-.' R R y 9 q w 3 = * > q q q f o.o.k m } } } yXuXLX7.; n.bXPXLXnXnXvXyX7.sXsXsXsXnX0.&.+Xn.5.>._.1XQ.S.A.W.S.u.D { _.",
">X>Xx.] b.x.X.A w y 4 5 = = - * * w q q k o.d Q ..W | ..#.e.BXVX#.} yX7.yX+.7.7.7.sXdXdXiX9.pX7.#.8.8.8.>.`.|.~.W.A.W.W.!.I.` G.",
"oX=Xv.,.x.*.S A q 4 * * - = - - + q > u | n w u k h ! o.$.#.#.uXnXnXyX4 z +.0.fXnXsXyXn.iXnXb.S :.5.:.3.1._.XXR.~.A.W.Q.tXqX].].",
"c.b.&.O.O.S f a 4 5 * $ - - - - * , X % j - = 1 p v v n %.....1.#.0.vXnXnXPXLXNXvXiX5.:.3.jXS 5 #.:.:.>.4.OXwX2XT.Z.B.W.0X3XXX.X",
"4.&.^ A S h a a 4 5 * * = = - o $ % o > d % X X r R b 1 1 v b M +. .q.dXsXsXiXiX9.9.e.q.>.n.s f o.:.>.o.>.#XFXrX1XQ.Q.W.!.R.qXqX",
"^ | Q A a i q i 4 5 & * = * % X O % > d y 1 X 1 b x E M 8 c M M n ~ O.$.9.0.:.5.3.:.q.q.5.$.f l :.$.@.| &.$XHXFX6X4XQ.s.C.Y.rXKX",
" .A S d w q & ; i : O o o + O o : & q d e 0 - j E . 1 ) E c 8 c E ! O.! #.:.$.#.o.+.#.3.3.m a g o.o.O.X.:.aXJXJXDX[.V.y.y.u.!.3X",
"o.A s 4 = 4 % % * & o   X X X O   O q k h 7 1 8 =.- 8 w.w.) c c b 7 v v n O.>.O...o.3.0.#.z z } W | O.&.:.zXIXIXHXwX3Xs.y.y.s.A.",
"Q f h q % O X & X X X X o X O   # ; 4 u j - 0 8 %.x c ) w.=.) ) ' *.E 7 x ~ ~ ! O.#.3.9.m l i  .| ! n O.>.xXHXFX).8XKXV.y.u.C.Q.",
"a a i , & X     X   X         O < . ; i r 3 r j b r.M b ) M =.%X%X<XM M E M x E ~ Q 5.5.m g  .n ! n n ~ ) :XeXJ.F /.XXN.N.S.S.S.",
"u i q , & X X o   X           O O o 2 z p 3 2 e p n ..r.r.b M =.<X=.1 M M E b 0 j Q 4.>.f u l g n ! $.O.=.2XrX0X|.|.E.N.W.W.N.T ",
"q 4 : & O     X X   X           o   , p f 3 2 1 2 1 p w.r.w.r.w.) ) 8 M ~ x . + 0 ! :.O.p e f h h R $.*.G.1X~.0XtX0XQ.B.A.B.N.N.",
"4 , & # X         X             .   ; i e 2 2 2 2 1 - p M q.gX%Xw.w.w.<X) - + 1 0 W Q ! f u g m h ! %.=.I.R.S.S.Q.E.D.N.B.A.T.E.",
"i , & # O X   X X X             . X % q 2 & 1 2 1 1 + + - 0 R / E =.=.t . 7 ~ ! A f d d d w u n j ~ / w.|.T.A.A.S.R.T.C.N.N.D.|.",
"4 : ; & O X X o X                   & 3 > % % & @ 2 - + % o o 1 r R ~ / O.v j O.Q s 4 9 p 9 9 d j O.O.(.].M.C.B.Q.0X0X1XB.N.J.2X",
": ; & # O   X o X               X   X > * % % O & & & @ * 5 * * 7 % r t w h ..Q h q = 9 w e e r R / *.(.I.M.M.C.L. X|.1XL.E.E.XX",
", , : : O X X O X               X     + & * * % * . % > $ $ 5 w 5 t d 9 R X.Q A e = 5 e e p j j R E *.).{.I.K.K.F.[.H.F.N.E.eX|.",
": , & # O O O   X X                   X o % ; : o O $ ; : 5 4 4 w 9 d X.X.k w q 5 5 5 5 9 r j v ~ *.=.)..XF.u.1X6X Xg.p.a.[.9X].",
"5 , & O X O O   X X                   X o o # % O # $ * # : : 5 q s S Q k u 4 4 * : 5 5 3 r v v ^ *.<.)..XJ.s.U.4X4XF.p.p.p.J.P.",
"4 , & # X o o   X X                       X o X O # # & : 4 4 i q h W f 4 : : : ; ; * = e g v n ~ ,.x.).].M.m.Z.M.Y.C.Y.R.F.g.g.",
", ; # # O o o o X   <                           X o O # : 4 i a a f i : O O : ; ; ; % * q g n ! O.>.(.^.J.M.m.Z.C.Q.1XrXrX Xp.T ",
"; ; # # # O X X X X X                                 o # ; q e i 4 ; O o O < ; # O O % 3 u n n :.>.oX*XI.L.V.m.Z.D.1X2X XU.K.a.",
": & ; ; # o       X     X                               X . O & & O @ ; O   X ; # O @ : 2 u n ..>.,.$XwX6X XL.N.V.N.L.E. XrXtXtX",
": & # & # o   X                                       .   . . . . . O & < X   < o # : , 2 e n ..>.6.=XSXSX8XXX].J.p.p.N.E.rXtXrX",
"& # # # # O o #   X               <                   .   . . o + . . . O . O     O : , 3 3 n ..4.6.%X,X,XSXwX6X X].J.J.|.1XT.R."
};
