/* XPM */
static char *ddce6d1265f446b5a2767cfd9944e00aufA31DMLMUC1qmtu[] = {
/* columns rows colors chars-per-pixel */
"64 64 250 2 ",
"   c #090101",
".  c #190904",
"X  c #1A1714",
"o  c #260E07",
"O  c #24130C",
"+  c #2A160B",
"@  c #391908",
"#  c #2B1C13",
"$  c #271B17",
"%  c #371C14",
"&  c #2A211C",
"*  c #34241B",
"=  c #392319",
"-  c #262424",
";  c #372A26",
":  c #3D322C",
">  c #3B3534",
",  c #292D30",
"<  c #1E1E20",
"1  c #43251B",
"2  c #49281A",
"3  c #512D1A",
"4  c #55321B",
"5  c #46240D",
"6  c #4B2D23",
"7  c #432C24",
"8  c #4D3126",
"9  c #4E3429",
"0  c #47362B",
"q  c #543323",
"w  c #593524",
"e  c #5B3A26",
"r  c #53352A",
"t  c #55392E",
"y  c #5C3C2C",
"u  c #593629",
"i  c #483934",
"p  c #5B3C32",
"a  c #553B32",
"s  c #532D22",
"d  c #613E2B",
"f  c #613B23",
"g  c #623E33",
"h  c #421D03",
"j  c #4A413A",
"k  c #5D4135",
"l  c #58453B",
"z  c #5F402C",
"x  c #63422E",
"c  c #644334",
"v  c #6B4A35",
"b  c #64453A",
"n  c #69463B",
"m  c #654A3D",
"M  c #6D4B3C",
"N  c #684534",
"B  c #724D3C",
"V  c #734D37",
"C  c #6F513C",
"Z  c #73523E",
"A  c #7B543B",
"S  c #4C4642",
"D  c #544D4A",
"F  c #59534C",
"G  c #5C5B58",
"H  c #6C4C42",
"J  c #654B42",
"K  c #724E42",
"L  c #6C5345",
"P  c #685549",
"I  c #755343",
"U  c #7A5544",
"Y  c #7C5945",
"T  c #74554A",
"R  c #7A564A",
"E  c #7C5A4B",
"W  c #755A49",
"Q  c #645C58",
"!  c #7C5C51",
"~  c #755D52",
"^  c #68625E",
"/  c #7B6357",
"(  c #7A604F",
")  c #6B6765",
"_  c #776C67",
"`  c #7A726D",
"'  c #7B7775",
"]  c #726D71",
"[  c #695F60",
"{  c #81593F",
"}  c #825D4C",
"|  c #845C47",
" . c #845F52",
".. c #83614E",
"X. c #89674E",
"o. c #856353",
"O. c #8B6553",
"+. c #8C6956",
"@. c #84655A",
"#. c #8D6B5B",
"$. c #866959",
"%. c #926654",
"&. c #936D5B",
"*. c #996E5D",
"=. c #926B56",
"-. c #94715E",
";. c #9A735D",
":. c #967558",
">. c #88715F",
",. c #A5795C",
"<. c #8C6D63",
"1. c #856C62",
"2. c #936C61",
"3. c #8C7667",
"4. c #947264",
"5. c #9C7463",
"6. c #9D7A65",
"7. c #9C756A",
"8. c #957B6C",
"9. c #9C7C6B",
"0. c #947668",
"q. c #857B76",
"w. c #9C7D72",
"e. c #987A75",
"r. c #A17664",
"t. c #A27B66",
"y. c #A37C6C",
"u. c #A97E6D",
"i. c #AD7D66",
"p. c #A57E72",
"a. c #A97D75",
"s. c #9B826D",
"d. c #95826A",
"f. c #89837D",
"g. c #9D8373",
"h. c #988778",
"j. c #A5826C",
"k. c #AB836D",
"l. c #A9876B",
"z. c #B5886A",
"x. c #A58273",
"c. c #AB8473",
"v. c #AD8A74",
"b. c #A48B7B",
"n. c #AC8B7A",
"m. c #A68778",
"M. c #B38573",
"N. c #B38A75",
"B. c #B98B75",
"V. c #B38C79",
"C. c #BB8D7A",
"Z. c #B6857B",
"A. c #AA937C",
"S. c #B4927C",
"D. c #BB927B",
"F. c #B99478",
"G. c #AA825F",
"H. c #C2937D",
"J. c #C4967C",
"K. c #C18C7F",
"L. c #CBA07E",
"P. c #7E8385",
"I. c #8A8785",
"U. c #958C86",
"Y. c #99928A",
"T. c #9A9796",
"R. c #A88E82",
"E. c #AA9587",
"W. c #B79986",
"Q. c #A89C95",
"!. c #B7938C",
"~. c #BAA38A",
"^. c #A9A299",
"/. c #B7A698",
"(. c #9E9DA4",
"). c #A9A7A6",
"_. c #B6ACA6",
"`. c #AEB1A9",
"'. c #B8B4AC",
"]. c #B9B9B5",
"[. c #AEB7B4",
"{. c #9FA09F",
"}. c #C39482",
"|. c #C59B85",
" X c #CA9B85",
".X c #C99A88",
"XX c #CF9B88",
"oX c #C8A38A",
"OX c #D4A38C",
"+X c #D7A78B",
"@X c #C6AA96",
"#X c #D6A993",
"$X c #DAB59A",
"%X c #CAB298",
"&X c #E6B799",
"*X c #C9B9AA",
"=X c #D4BBA7",
"-X c #C5BBB6",
";X c #C8AFAA",
":X c #E0BEA3",
">X c #BEC2BD",
",X c #C4C2BC",
"<X c #CBC3BD",
"1X c #CCC7BA",
"2X c #D4C7B8",
"3X c #D6C6B2",
"4X c #E2D0BC",
"5X c #C1BFC2",
"6X c #BEC3C1",
"7X c #CBC5C2",
"8X c #CCCCC4",
"9X c #CCCDCB",
"0X c #C5C7C5",
"qX c #D2CCC4",
"wX c #D3CECA",
"eX c #D8CBC3",
"rX c #CFD1C9",
"tX c #D4D3CC",
"yX c #DAD3CC",
"uX c #D9D5C7",
"iX c #CED3D3",
"pX c #D3D4D2",
"aX c #DCD6D3",
"sX c #DCDBD4",
"dX c #D8DADA",
"fX c #D1CDD2",
"gX c #E7D8C9",
"hX c #E2DBD5",
"jX c #E3DDD9",
"kX c #E7DAD5",
"lX c #ECD7C6",
"zX c #DEE2D7",
"xX c #E7E1CC",
"cX c #EBE3D4",
"vX c #E3E4DC",
"bX c #EAE3DB",
"nX c #E4E9DE",
"mX c #E7E7D8",
"MX c #F5EAD7",
"NX c #EFF1DD",
"BX c #DEE3E2",
"VX c #E6EAE2",
"CX c #ECEBE3",
"ZX c #E8E6E5",
"AX c #F5EAE5",
"SX c #ECF3E7",
"DX c #F3F3E3",
"FX c #FAF8E9",
"GX c #F8F7F7",
"HX c #EEECF7",
/* pixels */
"<.@.L b t 7 8 8 = = = 8 9 9 8 1 6 1 1 2 8 9 1 % 6 1 @ 1 r p p r 2 3 d x e 4 3 3 w w w y e e w 4 4 8 4 e z z c b L k u p b p g J ",
"1./ L J k 9 8 8 8 1 1 7 8 9 8 8 r 6 7 6 s 9 6 1 % 1 s a g a a s s w w w 3 3 3 3 d d x f f e e 4 e e z k x v M C M c p b b g g J ",
"1.@.~ J k t 9 8 r 8 1 1 6 9 9 t r r a p g a 6 1 1 t b J g a r u y e w 3 2 3 4 y M v N x x f e y x v v C C C L M b k c H H H g J ",
"8.<./ J t r 9 8 9 8 8 6 8 8 9 t 8 a n T T J 8 % p g J b a a g H y e w 4 4 y N B A Z v N c N N N Z Z C C M v n N N b n L T H H g ",
"g.e./ b 9 8 r 6 2 6 9 t 9 9 9 t r g n H K g r 1 g J g J n n n H 4 w w x V Z Y } A I Z Z v Z Z Z Y C C v z z k y b H T T T T H g ",
"g.g.@.k 8 9 9 1 2 8 t t z t t t b b g p p u g g g g H K T T n g 3 4 y B Y ......U U Z Z U Z I U Z C v z z z z z n T T T ! ! H g ",
"0.8.@.c q t 8 5 8 t y k z k c m K H n g g g g K H H K R R R g d c c v Y o.+.O.} U Y Y U U U A I Z v x z z z l C H ! ! T ! ! T g ",
"@.4.@.m y p q = t z k k p b M W K K R  .R T K K T U K n n g g g U U E X.-.&.O.....Y ....Y U Z M C v z z z z Z ( K  .@.T ! ! T g ",
"E ( E N t w w q y z c c N H U E O.O. . .} R R I | R K n n K K U ....O.+.+.+.O.X.o...E ..Y U Z Z z z x v C I U T  . .R @.0.R a a ",
"U E R c w u y y M M Z Z W E o.#.&.#.#. . .} R | } U | K K U R } O.O.+.+.+.#.+.+.+.o.E Z Z M V M C C C C C C T U ! <.<.1.<.T r s ",
"U E U x w y N N M Z Z U } o.#.&.5.&.%.O. . .| |  .} } U | |  . .+.+.+.o.+.+.+.+.#.O.Y Z M V Z Z ( Y Y C I Y E o.! 7.e.2.@.n s s ",
"..o.Y N e x B B Z I U E o.+.&.-.2.2.%. . . .|  . . .} | } } O.%.+.O.O.o.X.+.&.&.O.X.} Y Y Y E ..Y Y W A ( ( #.>.! e.p.1.! H r 6 ",
"-.-.O.Z N v U Y o.O.#.&.5.9.j.x.y.5.*.%.%.%. .%.%.%. . .O. .%.#.+.+.X.o.X.o.+.-.X.....X.....X...Z Y Y X.X.$.>.<.<.e.<. .@.T r 6 ",
"k.x.r...A U } O.-.5.6.j.c.v.v.V.c.c.y.5.*.5.*.5.%.*.%.%.%.%.%.%.+.+.O.O.+.+.+.#.O.+.O.O.o...E E X.( X.$.$.O.o.o.2.2.@.<.2.! r 6 ",
"V.V.c.&...O.&.-.5.t.y.c.v.N.V.n.V.M.a.r.5.5.r.y.r.r.r.2.=.=.=.&.+.#.-.-.-.-.-.&.#.=.+.O.o.o.O.o.>.&.>.X.o.O.o.@.4.1.@.e.a.R 1 1 ",
"S.W.V.9.#.-.6.6.j.x.v.V.V.S.V.C.C.M.u.r.r.*.r.r.y.i.r.r.5.;.*.-.&.&.-.5.5.4.-.-.4.-.+.+.O.&.;.6.6.:.>.X.o.O.#.2.<. .1.R.!.K % % ",
"m.W.S.A.d.9.s.9.m.A.N.S.D.C.B.B.k.k.l.k.v.k.k.l.t.t.l.l.t.r.;.:.5.6.6.r.r.5.5.6.;.*.&.*.&.;.5.6.;.*.%.O.O.%.#.#.2.E.8.R.m.6 + + ",
"A.b.g.s.d.d.g.x.m.n.N.S.C.F.H.F.z.k.k.v.v.k.v.k.j.l.u.t.j.t.;.;.6.t.r.t.y.y.r.r.5.5.5.;.5.6.r.r.=.%.%.%.O.O.=.#.7.W.!.W./ + + = ",
"d.>.$.d.g.s.s.n.j.l.v.B.B.D.B.B.k.k.N.N.v.v.v.z.k.k.l.t.t.,.6.r.y.u.u.a.u.u.u.y.r.y.t.y.y.y.y.y.*.*.*.*.*.5.7.9.0.b.R.g.z   + + ",
"3.L m / s.d.8.m.x.j.n.V.B.B.N.z.N.N.N.N.N.N.N.v.N.k.l.j.t.j.j.l.k.a.c.c.M.c.a.c.t.y.u.a.M.a.u.y.r.r.5.;.6.9.j.m.W.m.n.h.P l W k ",
"h.P z l ~ ( $.0.j.l.n.S.D.C.B.M.n.N.N.N.N.N.N.v.V.v.k.y.t.y.k.c.c.c.M.c.c.c.Z.c.y.c.c.c.c.c.u.u.r.r.r.r.7.y.x.x.R.g.R.d.P / h.3.",
"1Xd.l j 9 z v Y 4.6.j.N.V.S.S.V.v.n.V.V.S.N.n.N.N.N.c.j.j.j.c.v.c.c.n.N.n.n.c.x.c.a.c.c.x.p.p.u.a.u.y.y.y.y.x.x.3.s.h.m + 7 0 j ",
"NX3Xd.l l z z 8 Z Y +.5.x.v.n.n.v.N.Z.V.V.v.N.v.c.c.c.u.j.c.c.c.v.c.x.n.c.c.c.m.c.x.p.u.p.y.p.p.a.a.y.7.7.7.7.8.8.b.g.7 o = . O ",
"FXgX/.d.( L z @ 4 f B ..4.y.x.p.c.c.c.n.V.N.v.c.c.c.x.k.x.u.k.c.p.a.x.a.m.c.a.a.c.x.p.9.p.7.y.p.5.=.%.O. .( ( @./ 1.P . + j . . ",
"FXFXFX/.3.$.( C z 4 3 w n R @.0.y.p.V.V.a.Z.a.Z.a.a.u.p.a.u.x.a.p.x.m.m.a.m.a.w.a.a.e.7.7.2.2.&. .| K g g p g H n a 1 % + & * * ",
",X]._.Q.R.g.:.X.V 4 5 5 s a H ! <.5.y.p.a.a.a.Z.M.c.c.c.x.p.c.x.p.m.a.c.m.a.p.w.e.2.@. .! R R R g g s 2 1 6 9 a T l ; # O O # & ",
"T.' q.h.~.E.6.=.:...V y s 6 9 a R |  .2.a.a.a.a.a.a.p.p.a.a.a.a.p.g.m.m.p.w.8.<.2.<. .T K H b n s s 2 1 6 u p J P a * O O O O O ",
"T.I.' h.E.E.j.=.X...Y U H p i a g g K  .2.7.a.a.7.y.y.y.p.7.7.p.e.p.e.e.0.1. .! T T H b g p p a 2 s u p J R  ._ D 8 % # # * & O ",
"{.).).Q./.~.A.+.4 4 3 w y 9 i 9 6 s g K %.%.2.7.7.7.7.7.7.7.7.7.e.e.0.<.! T J g 6 r a p p p a t g n T R  .1.1. .i 0 ; * ; ; * & ",
"[.BXZXqX*X@Xl.| f 5 @ @ % % & % 1 2 w g K R %.*.7.7.7.7.7.7.7.7.2.<.1.! T l p r a a b H T T T T  .2.7.<.<.3.<.[ 7 = * * & & $ O ",
"HXGXGXvX*X/.v.;.,.{ f 3 1 = # O % 2 s s s g K  .2.2.2.2.2.2.2.%.<. .! H g a r 9 g g b J H T ! !  .<.e.<.2.R.R.e.7 7 ; * # X & & ",
"GXSXVXsX=X@XoX$Xz.*.{ A T l 7 % @ 2 s 3 2 s g R  . . . . . . . .1.! T J g a a a 7 1 = = 1 7 a p p K R T 1.R._._.l l j : ; ; i j ",
"FXFXFXgX;X@X$XoX.XM.*.O.( ( P P z z 3 @ @ 5 e v Y Y X.( ( Y Y .. .1.@.b 1 + o o . o . X $ ; $ % % h 3 %.s.R.*X*XF F F S > D ) G ",
"FXFXAXlX@X@X#XXXOXD.u.-.+.$.( L C v x 4 3 4 x v A ( X.X...Y ....R ! K p % + o + o O $ % ; ; ; ; % s g i.W./.uXqX[ ) ) ) D G ] G ",
"AXFXFXlX@X!.%X#X#XXXB.l.6.>. .T C V C N x x v V ( X.+.=.=.X.O.o.! T g q 1 % % % % % 1 6 9 i 7 7 4 V ,.OX@X;XlXkX` ' q.' ) G G D ",
"DXDXFXlX/.!.oX+X#XOX}.B.v.6.#. .Z Z A A A | | | X.:.;.j.l.;.;.*.@.K p r s s 6 s 9 r a g J H H n { ,.H.:X#X@XcXcX_ Q ) ` ) G G D ",
"CXDXFXxX/.S.oX+XOXOXXX.X}.Z.a.7.:.*.=.;.;.r.t.t.;.t.k.N.C.M.k.y. .H u u p p a g g V | | }  .%.%.z.J.+X:X%X~.lXkXQ j j G G Q P j ",
"DXNXDXMX%XS.oXoXOXOXOXOXXX}.K.a.C.N.M.k.M.M.M.k.i.c.M.H.}.W.C.c. .J r p g g g g g g g | | %.*.i.+X&X$X$X@X%XMXlX_ j j l D j i * ",
"DXNXDXMX3X~.oXJ. XXXXXXXXXXXK.}.}.C.Z.B.C.C.M.M.M.M.C.}..X XW.Z.2.H p g K g n B V A | | %.i.M.J.&X&X$X$X%X%XMX4X/ j j m j = + + ",
"FXNXFXMX3X~.~.J.K.H.J. X}.K.K.K.C.C.C.H.}. XC.Z.M.M.M.}..X X}.Z.2.T H K R B B | %.%.,.,.i.K.&X&X+X+XL.%X@X3XMX4Xl = j F z # = ; ",
"NXNXNXNX4X/.A.F.W.H.J.}.a.K.}.Z.M.M.B.H..XH.}.}.M.M.N.H.}. X}.C.2. .! R R E  .%.r.r.i.K.OX&X+XOXoX$XD.oX=X=XgXgXj : * & = 0 z F ",
"SXnXDXNXxX3X~.W.W.S.W.}.a.K.K.a.Z.M.Z.C.M.M.C.K.M.M.M.K.}.}.}.C.@.2.2.@.+.O.=.*.i.M.H.J.OX+X+X+X+X$XS.~.3X2XgX2X: * # # # * 0 0 ",
"SXnXSXDXmX4X'.~.S.x.n.!.Z.R.!.a.u.u.i.r.r.u.M.C.N.M.M.B.D.D.C.V.2.2.5.2.&.&.5.y.k.B.J.XX.X}.XXOXoX@Xv./.4XkXxX-X; & & X X # * 5 ",
"GXSXnXVXNXxX2X3XQ.b.R.R.a.a.a.7.5.%.} | *.k.V.N.c.k.c.N.V.C.V.N.y.r. .} } %.r.a.c.D.}. X}.}..X@XS.W.E.;XlXMXmX`.& & & & # X # # ",
"GXHXZXBXnXvXhX4X2X;X/.!.e.<.e.a.#.Y V A ;.F.W.k.l.l.l.k.N.N.V.N.M.5.O.|  .%.*.5.a.c.Z.V.!.!..X!.b.~._.uXzXzXzXY.- - & & & & # # ",
"GXHXZXdXzXVXmXsXkXeXqX2X_.Q.;X;Xj.:.Y Y t.|.W.y.j.j.y.k.n.S.S.S.u.r.5.&.*.%. .} 2.4.4.e.m.m.R.!.Q./.<XcXrXzXsXP.< < < < & & & X ",
"HXGXHXZXdXVXzXtXhXqXkXkXfX;XaXAX%XW.l.+.j.W.W.l.j.s.s.l.n.S.F.S.M.N.N.u.%.} R E 2.8.e.p.e.a.E./.*X-XeXbXrXiXzXP.- < - - & & & X ",
"ZXHXGXZXBXvXsXrXfX7XkXHX5X_.<XkXlX4X@Xj.d.A.W.v.j.s.j.l.v.F.F.J.N.H.}.y.} n T @.h.E./.Q.Q.Q._.<XkXeXhXZXrXiXzXP., , , - - & & & ",
"ZXZXZXZXVXVXdXpXrX8XrXSXnX'.`.mX2XuX4X*X~.s.s.A.6.l.;.l.L.F.z.L.|.B.x.7.1./ q.T.aX0X-X9XsXyX8XqXaXaXdXdXiX9XiXdX6XG X X > > & X ",
"ZXZXVXSXVXzXzXzXtXrXrXzXzX>X`.tX2XuXuX3X/.E.b.j.d.j.j.z.B.B.z.J.D.oXj.L H U.-XpX].iX0X9X>XsXtXvXdXfXfXfXpXiXiXdXBXiXI.>   & > : ",
"VXVXVXVXVXvXzXvXzXtXrXzXnX>X`.1XrXqXqX2X1X/.A.s.d.6.l.l.l.B.}.D.N.m.@.H 1.).5X).].pX9XpX0XsXsXFXaX7X7XfXtXrXrXiXSXBXdX).G $ X & ",
"VXVXzXzXzXvXnXvXzXpXrXsXnX,X`.>X1XrXuXqX1X'.~.Y.d.3.j.v.:.z.oXv.>.( / U.Q.Q.I.I.iXiX9X8XvX8XsXFXeX<X2XyXtX1X0XtXdX9XBXGXfX] ; $ ",
"zXvXvXsXzXvXzXvXzXsX8XtXnXrX`.`.0XrXtXrX1X'./.^.h.3.g.g.<.s.V.4.~ _ R.]._.T.).9X0X9X8XI.xX1XuX3X;X=X2XgX2X_.>XuXsXCXCXsXhXjX).Q ",
"zXzXvXzXsXdXsXsXtXuXrXrXzXtX].`.>X6XrX8X1X].'./.Q.h.d.m.h.9.0.1.q.T._.-X0X9X5X).T.pX-XS `.1X1Xh.!..X%X*X~.Y./.uXbXnXsXpXjXZXaX-X",
"sXjXjXsXhXsXtXtX8XsXrXqXvXuX,X`.>X>X>X9XrX0X`.^.U.1.^ q.E.0.~ 1.T.(.5X5X9X6X{.q.` 8XQ.F f.3X^.d.!.v.n.E.g.d./.cXmXuXyXCXAXfXfXZX",
"sXsXsXvXsXaXrXqX,XtXwX8XvXsX,X'.].[.[.9XdXtX`.Y.Q j : P h._ S Q P.(.fXdX).) ' ].) -Xq.h.d.3Xd.3X@XS.l.v.A.A.1XFXuXDXAXwXfXZXAXaX",
"AXZXkXhXaXyXwX7XqXwX8X<XqXyX7X].[.>X[.6XiX6X>X[.T.fXi - U.i . D (.(.(.].).I.I.;XuX^.d.h.E.~.~.~.G.%XL.d.d.=XxXxXuXFXsXzXsXGXtXZX",
"ZXvXhXaXhXhXhXaX,X<X-X,XyXvXaX<XT.>X6XiXBXiXrX>XfX_.S ; ; < i S P.] ' (.T.[ q.kXxX~.3.h.@X'.A.A.L.A.G.d.A.4XNXxXxXNXxXvXCXwXaXhX",
"bXkXhXhXhXaXaXyX<X-X].-XqXyXtX,X>X>X`.>X>X>XiX>XI.[ > -   < _ Q ] I.).fX-XU.R.eX%XA.h.A.F.A.A.A.A.d.d.A.xXMXxXxXmXxXmXvXCX^.hXqX",
"vXkXaXhXaXwXqX<X-X-X'.'.'.-X7X8X>X{.) P.T.P.`.`.] T.U.D , i [ _ [ (.-X;X;X@Xm.p.A.A.A.L.A.d.d.A./ d.A.4XMXxXxXxXmXmXzXNXuXQ.kX'.",
"bXkXkXkXaXwXeX7X-X-X]._._._.-XqX>Xf.j Y.).) f.] S q.I.i   > ] I.Q._.Q.8.b.~.R.u.L.A.l.l.F.A.d.3.>.^.4XNXNXxXzXzXzXDXmXmX_.'.uX_.",
"jXjXkXjXkXhXwXeX-X-X_.Q.q.q.q.I.>XY.j {.].] I.f.U.] U.D . q.ZXkX;XQ.3.8.W.W.F.oXF.F.l.l.G.d.d.g.1XuXmXxXzXNXNXzXuXDXmXuXQ.uX2X'.",
"jXjXkXhXkXyXqX<X'.Q.Y.f.) S ; ; ' f.F ^.^.Q Q.Y._.I.q.S j (._.E.e.8.3.n.oXv.,.J.G.G.z.G.+.d.~.3XAXCXnXmXnXSXSXzXnXzXSX>X'.hX'.4X",
"bXkXhXaXyX7X-X'.Q.q.` _ ^ j & .   F F ^.f.j q.[ ] U.[ > -XZX' _ _ R.W.S.F.z.z.z.G.G.G.:.A.=XlXMXmXvXnXnXSXnXnXSXSX>XFX^.2XhX/.cX"
};
